<svg width="125" height="25" viewBox="0 0 125 25" fill="none" xmlns="http://www.w3.org/2000/svg">
<path d="M24.7119 5.23447C22.2756 2.0736 18.1856 0 13.5509 0C6.08314 0 0.0292969 5.38368 0.0292969 12.0248C0.0292969 12.991 0.157437 13.9305 0.399416 14.8308L7.28516 8.70729C7.94523 8.12029 9.01541 8.12029 9.67547 8.70729L15.2411 13.6568L24.7119 5.23447Z" fill="#8794BA"/>
<path d="M26.319 8.05668L16.4363 16.8454C15.7762 17.4324 14.706 17.4324 14.046 16.8454L8.48032 11.8959L1.74261 17.8877C4.0557 21.5642 8.47694 24.0496 13.5509 24.0496C21.0187 24.0496 27.0726 18.6659 27.0726 12.0248C27.0726 10.6343 26.8072 9.29902 26.319 8.05668Z" fill="#8794BA"/>
<path d="M42.4928 15.0648H38.973L38.3584 16.8348H35.6143L39.5219 7.3598H41.9367L45.8736 16.8348H43.1148L42.4928 15.0648ZM39.5877 13.3012H41.8781L40.7293 10.0149L39.5877 13.3012Z" fill="#8794BA"/>
<path d="M55.5548 16.8348H53.0009L49.225 10.939V16.8348H46.6565V7.3598H49.225L52.9936 13.2557V7.3598H55.5548V16.8348Z" fill="#8794BA"/>
<path d="M63.3627 15.0648H59.8429L59.2282 16.8348H56.4841L60.3917 7.3598H62.8065L66.7434 16.8348H63.9847L63.3627 15.0648ZM60.4576 13.3012H62.748L61.5991 10.0149L60.4576 13.3012Z" fill="#8794BA"/>
<path d="M70.0949 15.0778H74.5659V16.8348H67.5264V7.3598H70.0949V15.0778Z" fill="#8794BA"/>
<path d="M77.5003 11.4726L79.4614 7.3598H82.2348L78.8028 13.4314V16.8348H76.1978V13.4314L72.7731 7.3598H75.5319L77.5003 11.4726Z" fill="#8794BA"/>
<path d="M91.5062 9.12335H88.3084V16.8348H85.7399V9.12335H82.6007V7.3598H91.5062V9.12335Z" fill="#8794BA"/>
<path d="M95.3333 16.8348H92.7722V7.3598H95.3333V16.8348Z" fill="#8794BA"/>
<path d="M105.739 13.6266C105.705 14.286 105.505 14.8695 105.139 15.3771C104.773 15.8804 104.258 16.2708 103.595 16.5485C102.936 16.8261 102.183 16.965 101.334 16.965C99.9337 16.965 98.8312 16.5593 98.0262 15.748C97.2213 14.9368 96.8188 13.7914 96.8188 12.3121V11.8435C96.8188 10.9151 96.9993 10.1038 97.3603 9.40968C97.7262 8.71121 98.2506 8.17325 98.9336 7.79581C99.6166 7.41403 100.407 7.22314 101.305 7.22314C102.597 7.22314 103.636 7.52683 104.422 8.1342C105.207 8.73724 105.654 9.5702 105.761 10.6331H103.2C103.18 10.0561 103.017 9.64179 102.709 9.39016C102.402 9.13854 101.934 9.01272 101.305 9.01272C100.665 9.01272 100.197 9.2253 99.8995 9.65046C99.6019 10.0756 99.4458 10.7546 99.4312 11.6873V12.3576C99.4312 13.3684 99.5727 14.0908 99.8556 14.5246C100.143 14.9585 100.636 15.1754 101.334 15.1754C101.924 15.1754 102.375 15.0517 102.688 14.8045C103 14.5572 103.166 14.1645 103.185 13.6266H105.739Z" fill="#8794BA"/>
<path d="M112.449 14.3164C112.449 13.9823 112.315 13.722 112.047 13.5355C111.783 13.3489 111.317 13.1559 110.649 12.9563C109.981 12.7567 109.434 12.5637 109.01 12.3771C107.629 11.7741 106.939 10.9455 106.939 9.89124C106.939 9.3663 107.11 8.90426 107.451 8.50513C107.798 8.10166 108.286 7.7893 108.915 7.56805C109.544 7.34245 110.252 7.22965 111.037 7.22965C111.803 7.22965 112.488 7.35113 113.093 7.59408C113.703 7.83702 114.176 8.18409 114.513 8.63528C114.849 9.08214 115.018 9.59407 115.018 10.1711H112.457C112.457 9.78495 112.322 9.48561 112.054 9.27303C111.791 9.06045 111.432 8.95416 110.978 8.95416C110.52 8.95416 110.156 9.04526 109.888 9.22747C109.625 9.40535 109.493 9.63311 109.493 9.91077C109.493 10.1537 109.639 10.375 109.932 10.5745C110.225 10.7698 110.739 10.9737 111.476 11.1862C112.213 11.3945 112.818 11.6201 113.291 11.863C114.442 12.4531 115.018 13.2665 115.018 14.3034C115.018 15.132 114.666 15.7828 113.964 16.2556C113.261 16.7285 112.298 16.965 111.074 16.965C110.21 16.965 109.427 16.8283 108.725 16.555C108.027 16.2773 107.5 15.8999 107.144 15.4227C106.793 14.9411 106.617 14.388 106.617 13.7632H109.193C109.193 14.2708 109.339 14.6461 109.632 14.889C109.93 15.1277 110.41 15.247 111.074 15.247C111.498 15.247 111.832 15.1667 112.076 15.0062C112.325 14.8413 112.449 14.6114 112.449 14.3164Z" fill="#8794BA"/>
</svg>
